<svg id="Layer_1" data-name="Layer 1" xmlns="http://www.w3.org/2000/svg" viewBox="0 0 172.67 67"><defs><style>.cls-1{fill:#137889;}.cls-2{fill:#4bbcd6;}.cls-3{fill:#fff;}.cls-4{fill:#127c8d;}.cls-5{fill:#ffd15d;}.cls-6{fill:#ff9e46;}.cls-7{fill:#ff7226;}.cls-8{fill:#be0d38;}.cls-9{font-size:20.37px;font-family:Futura-Bold, Futura;font-weight:700;}</style></defs><path class="cls-1" d="M28.13,13.67a21.54,21.54,0,0,1,0,43.08Z"/><path class="cls-2" d="M28.13,13.67a21.54,21.54,0,1,0,0,43.08h0Z"/><path class="cls-3" d="M27.72,19.47H25.65c-.83,0-2.07-1.24-2.49-2.49,0,0-1.34-.88-1.24-2.07l5.8-.83Z"/><path class="cls-4" d="M21.92,53.85a1.81,1.81,0,0,1,.77-2.44l.09,0c2.49,0,2.49-7.46-4.14-6.63,0-7.46-8.28-5.8-8.28-2.49a7.34,7.34,0,0,0-.83,3.31c.14,1.46,5.38,6.62,5.38,6.62l5.8,2.91C21.51,55.09,21.92,53.85,21.92,53.85Z"/><path class="cls-4" d="M19.44,19.05c4.14,0,3.31,5,.83,5V34h-5.8v2.49c0,2.49-4.14,2.49-4.14,0V23.09l6-5.9Z"/><path d="M28.13,14.5A20.71,20.71,0,1,1,7.42,35.21,20.71,20.71,0,0,1,28.13,14.5m0-.83A21.54,21.54,0,1,0,49.67,35.21h0A21.54,21.54,0,0,0,28.13,13.67Z"/><rect x="27.31" y="14.5" width="0.83" height="41.84"/><path d="M12.39,38.73a2.68,2.68,0,0,1-1.68-.56,2.13,2.13,0,0,1-.8-1.72V29.82a.42.42,0,0,1,.42-.42.41.41,0,0,1,.41.42v6.63a1.49,1.49,0,0,0,1.52,1.46h.14a1.49,1.49,0,0,0,1.65-1.31.66.66,0,0,0,0-.14V34a.41.41,0,0,1,.41-.41h5.39V24a.41.41,0,0,1,.41-.41A1.47,1.47,0,0,0,21.44,23a2.45,2.45,0,0,0,.48-1.45c0-.49-.18-2.07-2.49-2.07a.42.42,0,0,1,0-.83c2.45,0,3.31,1.56,3.31,2.9a2.84,2.84,0,0,1-2.06,2.85V34.79a.41.41,0,0,1-.41.42.42.42,0,0,1-.42-.42v-.41h-5v2.07a2.31,2.31,0,0,1-2.35,2.28Z"/><path d="M21.92,54.26a.41.41,0,0,1-.37-.23,2.2,2.2,0,0,1,.92-3l.08,0h.19a1,1,0,0,0,.83-.61,3.76,3.76,0,0,0-.41-3.61c-.63-.9-1.91-1.91-4.51-1.59a.41.41,0,0,1-.46-.35.13.13,0,0,1,0-.06A5.2,5.2,0,0,0,16.91,41a3.77,3.77,0,0,0-2.7-1.07c-1.84-.07-3.43,1.07-3.43,2.32a.41.41,0,0,1-.41.42.42.42,0,0,1-.42-.42C10,40.33,12.18,39,14.26,39a4.57,4.57,0,0,1,3.29,1.31,5.71,5.71,0,0,1,1.5,3.93,5,5,0,0,1,4.83,2,4.56,4.56,0,0,1,.46,4.47,1.75,1.75,0,0,1-1.45,1,1.24,1.24,0,0,0-.73,1.14,1.94,1.94,0,0,0,.16.75.4.4,0,0,1-.17.55.35.35,0,0,1-.2,0Z"/><path d="M12,40.39A.41.41,0,0,1,11.6,40V38.29a.41.41,0,0,1,.42-.41.41.41,0,0,1,.41.41V40A.41.41,0,0,1,12,40.39Z"/><circle cx="17.36" cy="36.87" r="0.83"/><path d="M25.65,19.88c-1.1,0-2.45-1.49-2.88-2.77a.43.43,0,0,1,.27-.53.42.42,0,0,1,.52.27c.38,1.13,1.5,2.2,2.09,2.2a.42.42,0,1,1,0,.83Z"/><path class="cls-5" d="M28.13,15.33a19.89,19.89,0,1,1,0,39.77Z"/><path d="M28.13,55.51h-.41V14.91h.41a20.3,20.3,0,0,1,0,40.59Zm.41-39.76V54.67a19.47,19.47,0,0,0,0-38.93Z"/><path class="cls-6" d="M28.13,20.3a14.91,14.91,0,1,1,0,29.82h0Z"/><path d="M28.13,50.54h-.41V19.88h.41a15.33,15.33,0,0,1,0,30.65Zm.41-29.82v29a14.5,14.5,0,0,0,0-29Z"/><path class="cls-7" d="M28.13,26.1a9.12,9.12,0,1,1,0,18.23Z"/><path d="M28.13,44.74h-.41V25.68h.41a9.53,9.53,0,0,1,0,19Zm.41-18.22V43.9a8.7,8.7,0,0,0,0-17.38Z"/><path class="cls-8" d="M28.13,30.24a5,5,0,1,1,1.1,9.94,5.06,5.06,0,0,1-1.1,0Z"/><path d="M28.13,40.59h-.41V29.82h.41a5.39,5.39,0,0,1,.47,10.77Zm.41-9.92v9.08a4.56,4.56,0,0,0,0-9.08Z"/><text class="cls-9" transform="translate(54.27 42.82)">H</text><text class="cls-9" transform="translate(71.24 42.82) scale(0.7)">AZ</text><text class="cls-9" transform="translate(92.85 42.82)">M</text><text class="cls-9" transform="translate(113.93 42.82) scale(0.7)">APPER</text></svg>