<svg id="Layer_1" data-name="Layer 1" xmlns="http://www.w3.org/2000/svg" viewBox="0 0 74.26 62.32"><defs><style>.cls-1{fill:#137889;}.cls-2{fill:#4bbcd6;}.cls-3{fill:#fff;}.cls-4{fill:#127c8d;}.cls-5{fill:#ffd15d;}.cls-6{fill:#ff9e46;}.cls-7{fill:#ff7226;}.cls-8{fill:#be0d38;}.cls-9{font-size:13.92px;font-family:Futura-Bold, Futura;font-weight:700;}</style></defs><path class="cls-1" d="M37.13,2a21.54,21.54,0,1,1,0,43.08Z"/><path class="cls-2" d="M37.13,2a21.54,21.54,0,0,0,0,43.08h0Z"/><path class="cls-3" d="M36.72,7.8H34.65c-.83,0-2.07-1.24-2.49-2.49,0,0-1.34-.88-1.24-2.07l5.8-.83Z"/><path class="cls-4" d="M30.92,42.18a1.81,1.81,0,0,1,.77-2.44l.09-.05c2.49,0,2.49-7.46-4.14-6.63,0-7.46-8.28-5.8-8.28-2.49a7.34,7.34,0,0,0-.83,3.31c.14,1.46,5.38,6.62,5.38,6.62l5.8,2.91C30.51,43.42,30.92,42.18,30.92,42.18Z"/><path class="cls-4" d="M28.44,7.38c4.14,0,3.31,5,.83,5v9.95h-5.8v2.49c0,2.49-4.14,2.49-4.14,0V11.42l6-5.9Z"/><path d="M37.13,2.83A20.71,20.71,0,1,1,16.42,23.54,20.71,20.71,0,0,1,37.13,2.83m0-.83A21.54,21.54,0,1,0,58.67,23.54h0A21.54,21.54,0,0,0,37.13,2Z"/><rect x="36.31" y="2.83" width="0.83" height="41.84"/><path d="M21.39,27.06a2.7,2.7,0,0,1-1.68-.56,2.16,2.16,0,0,1-.8-1.72V18.15a.41.41,0,0,1,.42-.41.41.41,0,0,1,.41.41v6.63a1.49,1.49,0,0,0,1.52,1.46h.14a1.49,1.49,0,0,0,1.65-1.31.66.66,0,0,0,0-.14V22.33a.41.41,0,0,1,.41-.41h5.39V12.33a.41.41,0,0,1,.41-.41,1.45,1.45,0,0,0,1.17-.59,2.38,2.38,0,0,0,.48-1.45c0-.49-.18-2.07-2.49-2.07a.42.42,0,0,1,0-.83c2.45,0,3.31,1.56,3.31,2.9a2.83,2.83,0,0,1-2.06,2.85V23.12a.41.41,0,0,1-.41.42.42.42,0,0,1-.42-.42v-.41h-5v2.07a2.31,2.31,0,0,1-2.35,2.28Z"/><path d="M30.92,42.59a.42.42,0,0,1-.37-.23,2.2,2.2,0,0,1,.92-3l.08,0h.19a1,1,0,0,0,.83-.61,3.73,3.73,0,0,0-.41-3.61c-.63-.9-1.91-1.91-4.51-1.59a.41.41,0,0,1-.46-.35.13.13,0,0,1,0-.06,5.2,5.2,0,0,0-1.27-3.81,3.77,3.77,0,0,0-2.7-1.07c-1.84-.07-3.43,1.07-3.43,2.32a.41.41,0,0,1-.41.42.42.42,0,0,1-.42-.42c0-1.92,2.23-3.22,4.31-3.22a4.57,4.57,0,0,1,3.29,1.31,5.71,5.71,0,0,1,1.5,3.93,5,5,0,0,1,4.83,2,4.56,4.56,0,0,1,.46,4.47,1.75,1.75,0,0,1-1.45,1,1.26,1.26,0,0,0-.73,1.14,1.94,1.94,0,0,0,.16.75.4.4,0,0,1-.17.55.35.35,0,0,1-.2.05Z"/><path d="M21,28.72a.41.41,0,0,1-.41-.41V26.62a.41.41,0,0,1,.42-.41.41.41,0,0,1,.41.41v1.71A.4.4,0,0,1,21,28.72Z"/><circle cx="26.36" cy="25.2" r="0.83"/><path d="M34.65,8.21c-1.1,0-2.45-1.49-2.88-2.77A.41.41,0,0,1,32,4.92a.4.4,0,0,1,.52.26c.38,1.13,1.5,2.2,2.09,2.2a.42.42,0,1,1,0,.83Z"/><path class="cls-5" d="M37.13,3.66a19.89,19.89,0,1,1,0,39.77Z"/><path d="M37.13,43.84h-.41V3.24h.41a20.3,20.3,0,0,1,0,40.59Zm.41-39.76V43a19.47,19.47,0,0,0,0-38.93Z"/><path class="cls-6" d="M37.13,8.63a14.91,14.91,0,0,1,0,29.82h0Z"/><path d="M37.13,38.87h-.41V8.21h.41a15.33,15.33,0,0,1,0,30.65Zm.41-29.82v29a14.5,14.5,0,1,0,0-29Z"/><path class="cls-7" d="M37.13,14.43a9.12,9.12,0,1,1,0,18.23Z"/><path d="M37.13,33.07h-.41V14h.41a9.53,9.53,0,0,1,0,19.05Zm.41-18.22V32.23a8.7,8.7,0,0,0,0-17.38Z"/><path class="cls-8" d="M37.13,18.57a5,5,0,1,1,1.1,9.94,5.06,5.06,0,0,1-1.1,0Z"/><path d="M37.13,28.92h-.41V18.15h.41a5.39,5.39,0,1,1,.47,10.77ZM37.54,19v9.08a4.56,4.56,0,0,0,0-9.08Z"/><text class="cls-9" transform="translate(0 59.53)">H</text><text class="cls-9" transform="translate(11.59 59.53) scale(0.7)">AZ</text><text class="cls-9" transform="translate(26.37 59.53)">M</text><text class="cls-9" transform="translate(40.77 59.53) scale(0.7)">APPER</text></svg>